<svg width="32" height="32" viewBox="0 0 32 32" fill="none" xmlns="http://www.w3.org/2000/svg">
<path d="M30.8539 16.548C30.5229 17.43 29.7029 18 28.7639 18H27.9999V29C27.9999 29.552 27.5519 30 26.9999 30H20.9999V23C20.9999 20.243 18.7569 18 15.9999 18C13.2429 18 10.9999 20.243 10.9999 23V30H4.9999C4.4479 30 3.9999 29.552 3.9999 29V18H3.2349C2.2959 18 1.4759 17.431 1.1449 16.549C0.813904 15.667 1.0569 14.697 1.7649 14.079L13.4439 3.01897C14.8779 1.66197 17.1229 1.66197 18.5559 3.01897L30.2629 14.105C30.9409 14.696 31.1849 15.666 30.8539 16.548Z" fill="white"/>
</svg>
